<?xml version="1.0" encoding="UTF-8"?>
<!DOCTYPE svg PUBLIC "-//W3C//DTD SVG 1.1//EN" "http://www.w3.org/Graphics/SVG/1.1/DTD/svg11.dtd">
<svg xmlns="http://www.w3.org/2000/svg" version="1.1" width="48px" height="48px" style="shape-rendering:geometricPrecision; text-rendering:geometricPrecision; image-rendering:optimizeQuality; fill-rule:evenodd; clip-rule:evenodd" xmlns:xlink="http://www.w3.org/1999/xlink">
<g><path style="opacity:0.975" fill="#773e19" d="M 6.5,4.5 C 10.6143,8.06416 14.9476,11.3975 19.5,14.5C 18.2128,17.4532 16.2128,19.7865 13.5,21.5C 10.779,21.9628 8.11231,22.6295 5.5,23.5C 4.90043,19.3334 4.23376,15.1667 3.5,11C 3.28547,8.0906 4.28547,5.92394 6.5,4.5 Z"/></g>
<g><path style="opacity:0.965" fill="#773e19" d="M 40.5,4.5 C 41.4972,4.47008 42.1639,4.97008 42.5,6C 43.0367,7.79178 43.3701,9.62511 43.5,11.5C 42.8301,15.5097 42.1634,19.5097 41.5,23.5C 38.8877,22.6295 36.221,21.9628 33.5,21.5C 30.7872,19.7865 28.7872,17.4532 27.5,14.5C 32.4131,11.8817 36.7465,8.5484 40.5,4.5 Z"/></g>
<g><path style="opacity:0.847" fill="#df7224" d="M 6.5,4.5 C 11.0114,5.93113 15.3447,7.59779 19.5,9.5C 18.9035,10.9354 18.9035,12.602 19.5,14.5C 14.9476,11.3975 10.6143,8.06416 6.5,4.5 Z"/></g>
<g><path style="opacity:0.922" fill="#dc7324" d="M 40.5,4.5 C 36.7465,8.5484 32.4131,11.8817 27.5,14.5C 27.6287,12.7839 27.962,11.1172 28.5,9.5C 32.2613,7.46247 36.2613,5.7958 40.5,4.5 Z"/></g>
<g><path style="opacity:0.979" fill="#f98a01" d="M 19.5,9.5 C 22.5,9.5 25.5,9.5 28.5,9.5C 27.962,11.1172 27.6287,12.7839 27.5,14.5C 26.5139,18.97 26.1805,23.6367 26.5,28.5C 27.6316,29.3543 28.965,29.3543 30.5,28.5C 31.4511,26.882 32.7844,25.5487 34.5,24.5C 34.0233,23.5224 33.3567,22.6891 32.5,22C 32.7284,21.6012 33.0618,21.4346 33.5,21.5C 36.221,21.9628 38.8877,22.6295 41.5,23.5C 42.1084,26.3267 43.1084,28.9933 44.5,31.5C 39.8215,31.3342 35.1548,31.5008 30.5,32C 29.2899,33.0391 28.2899,34.2058 27.5,35.5C 27.1667,35.5 26.8333,35.5 26.5,35.5C 24.5,34.1667 22.5,34.1667 20.5,35.5C 20.1667,35.5 19.8333,35.5 19.5,35.5C 18.7101,34.2058 17.7101,33.0391 16.5,32C 12.1794,31.501 7.84611,31.3343 3.5,31.5C 3.96283,28.779 4.6295,26.1123 5.5,23.5C 8.11231,22.6295 10.779,21.9628 13.5,21.5C 13.7711,22.5519 13.9378,23.8853 14,25.5C 14.7083,26.3805 15.5416,27.0472 16.5,27.5C 17.7046,29.1376 19.0379,29.4709 20.5,28.5C 21.1471,27.7261 21.4805,26.7261 21.5,25.5C 21.0682,21.6501 20.4016,17.9835 19.5,14.5C 18.9035,12.602 18.9035,10.9354 19.5,9.5 Z"/></g>
<g><path style="opacity:1" fill="#d86f23" d="M 19.5,14.5 C 20.4016,17.9835 21.0682,21.6501 21.5,25.5C 21.4805,26.7261 21.1471,27.7261 20.5,28.5C 19.7081,26.2552 18.3747,25.9219 16.5,27.5C 15.5416,27.0472 14.7083,26.3805 14,25.5C 13.9378,23.8853 13.7711,22.5519 13.5,21.5C 16.2128,19.7865 18.2128,17.4532 19.5,14.5 Z"/></g>
<g><path style="opacity:1" fill="#d96f24" d="M 27.5,14.5 C 28.7872,17.4532 30.7872,19.7865 33.5,21.5C 33.0618,21.4346 32.7284,21.6012 32.5,22C 33.3567,22.6891 34.0233,23.5224 34.5,24.5C 32.7844,25.5487 31.4511,26.882 30.5,28.5C 29.1667,25.8333 27.8333,25.8333 26.5,28.5C 26.1805,23.6367 26.5139,18.97 27.5,14.5 Z"/></g>
<g><path style="opacity:1" fill="#462f21" d="M 20.5,28.5 C 19.0379,29.4709 17.7046,29.1376 16.5,27.5C 18.3747,25.9219 19.7081,26.2552 20.5,28.5 Z"/></g>
<g><path style="opacity:1" fill="#4a3121" d="M 30.5,28.5 C 28.965,29.3543 27.6316,29.3543 26.5,28.5C 27.8333,25.8333 29.1667,25.8333 30.5,28.5 Z"/></g>
<g><path style="opacity:0.921" fill="#de7326" d="M 3.5,31.5 C 7.84611,31.3343 12.1794,31.501 16.5,32C 17.7101,33.0391 18.7101,34.2058 19.5,35.5C 17.9236,36.1429 16.5903,37.1429 15.5,38.5C 12.2107,39.3739 8.87741,40.0405 5.5,40.5C 4.83333,37.5 4.16667,34.5 3.5,31.5 Z"/></g>
<g><path style="opacity:0.917" fill="#e07426" d="M 44.5,31.5 C 43.5084,34.1381 42.5084,36.8048 41.5,39.5C 40.8333,39.8333 40.1667,40.1667 39.5,40.5C 36.8702,39.6221 34.2035,38.9555 31.5,38.5C 30.5637,37.0256 29.2303,36.0256 27.5,35.5C 28.2899,34.2058 29.2899,33.0391 30.5,32C 35.1548,31.5008 39.8215,31.3342 44.5,31.5 Z"/></g>
<g><path style="opacity:0.999" fill="#262320" d="M 26.5,35.5 C 26.5,36.5 26.5,37.5 26.5,38.5C 24.5,38.5 22.5,38.5 20.5,38.5C 20.5,37.5 20.5,36.5 20.5,35.5C 22.5,34.1667 24.5,34.1667 26.5,35.5 Z"/></g>
<g><path style="opacity:0.957" fill="#c2b2ac" d="M 19.5,35.5 C 19.8333,35.5 20.1667,35.5 20.5,35.5C 20.5,36.5 20.5,37.5 20.5,38.5C 22.5,38.5 24.5,38.5 26.5,38.5C 26.5,37.5 26.5,36.5 26.5,35.5C 26.8333,35.5 27.1667,35.5 27.5,35.5C 29.2303,36.0256 30.5637,37.0256 31.5,38.5C 26.1667,42.5 20.8333,42.5 15.5,38.5C 16.5903,37.1429 17.9236,36.1429 19.5,35.5 Z"/></g>
</svg>
